<svg width="39" height="39" viewBox="0 0 39 39" fill="none" xmlns="http://www.w3.org/2000/svg">
<path d="M35.8173 23.1562H31.0417V18.2812H28.6538V29.25H9.55128V9.75H20.2965V7.3125H15.5208V2.4375H13.133V7.3125H9.55128C8.91818 7.31315 8.3112 7.57016 7.86353 8.02714C7.41587 8.48412 7.16409 9.10373 7.16346 9.75V13.4062H2.38782V15.8438H7.16346V23.1562H2.38782V25.5938H7.16346V29.25C7.16409 29.8963 7.41587 30.5159 7.86353 30.9729C8.3112 31.4298 8.91818 31.6869 9.55128 31.6875H13.133V36.5625H15.5208V31.6875H22.6843V36.5625H25.0721V31.6875H28.6538C29.2868 31.6865 29.8936 31.4294 30.3412 30.9725C30.7888 30.5156 31.0407 29.8962 31.0417 29.25V25.5938H35.8173V23.1562Z" fill="#EAE8FF"/>
<path d="M31.0417 2.4375C29.7755 2.43879 28.5615 2.95282 27.6662 3.86678C26.7708 4.78074 26.2673 6.01997 26.266 7.3125C26.2705 8.18036 26.5044 9.0309 26.943 9.77438L23.3839 13.4062H13.133V25.5938H25.0721V15.1296L28.63 11.4977C29.3584 11.945 30.1916 12.1834 31.0417 12.1875C32.3082 12.1875 33.5229 11.6739 34.4186 10.7596C35.3142 9.84541 35.8173 8.60543 35.8173 7.3125C35.8173 6.01957 35.3142 4.77959 34.4186 3.86535C33.5229 2.95111 32.3082 2.4375 31.0417 2.4375ZM22.6843 23.1562H15.5208V15.8438H22.6843V23.1562ZM31.0417 9.75C30.5694 9.75 30.1077 9.60704 29.7151 9.33921C29.3224 9.07137 29.0163 8.69069 28.8356 8.24529C28.6549 7.7999 28.6076 7.3098 28.6997 6.83697C28.7919 6.36414 29.0193 5.92982 29.3532 5.58893C29.6872 5.24804 30.1126 5.01589 30.5758 4.92184C31.039 4.82778 31.5191 4.87605 31.9554 5.06054C32.3918 5.24503 32.7647 5.55745 33.0271 5.9583C33.2894 6.35914 33.4295 6.83041 33.4295 7.3125C33.4289 7.95877 33.1771 8.57838 32.7294 9.03536C32.2817 9.49234 31.6748 9.74935 31.0417 9.75Z" fill="#EAE8FF"/>
</svg>
