<svg width="138" height="138" viewBox="0 0 138 138" fill="none" xmlns="http://www.w3.org/2000/svg">
<path d="M121.736 113.496C121.767 113.45 121.813 113.403 121.844 113.357C131.932 101.359 138 85.8958 138 69C138 52.1042 131.932 36.6408 121.859 24.6429C121.828 24.5967 121.782 24.5658 121.751 24.5196C121.582 24.3194 121.428 24.1346 121.258 23.9498C121.197 23.8728 121.135 23.8112 121.073 23.7342L120.442 23.0103L120.427 22.9949C120.196 22.733 119.949 22.4712 119.718 22.2094L119.703 22.194C119.21 21.6703 118.717 21.1467 118.209 20.6384L118.193 20.623L117.454 19.8837L117.408 19.8375C117.177 19.6065 116.946 19.3908 116.715 19.1752C116.638 19.0982 116.561 19.0212 116.468 18.9442C116.314 18.7902 116.16 18.6516 116.006 18.5129C115.96 18.4667 115.898 18.4205 115.852 18.3589C103.562 6.96161 87.0971 0 69 0C50.9029 0 34.4384 6.96161 22.1324 18.3589C22.0862 18.4051 22.0246 18.4513 21.9783 18.5129C21.8243 18.6516 21.6703 18.8056 21.5163 18.9596C21.4393 19.0366 21.3623 19.1136 21.2699 19.1906C21.0388 19.4062 20.8078 19.6373 20.5768 19.8529L20.5306 19.8991L19.7913 20.6384L19.7759 20.6538C19.2676 21.1621 18.7748 21.6857 18.2819 22.2094L18.2665 22.2248C18.0201 22.4866 17.7891 22.7484 17.558 23.0103L17.5426 23.0257C17.327 23.2567 17.1114 23.5031 16.9112 23.7496C16.8496 23.8266 16.7879 23.8882 16.7263 23.9652C16.5569 24.15 16.4029 24.3502 16.2335 24.535C16.2027 24.5812 16.1565 24.6121 16.1257 24.6583C6.0683 36.6408 0 52.1042 0 69C0 85.8958 6.0683 101.359 16.1411 113.357C16.1719 113.403 16.2181 113.45 16.2489 113.496L16.7263 114.066C16.7879 114.143 16.8496 114.204 16.9112 114.281L17.5426 115.005C17.5426 115.021 17.558 115.021 17.558 115.036C17.7891 115.298 18.0201 115.56 18.2665 115.806L18.2819 115.821C18.7748 116.345 19.2676 116.869 19.7605 117.377L19.7759 117.392C20.0223 117.639 20.2533 117.885 20.4998 118.116L20.546 118.162C21.0542 118.671 21.5779 119.164 22.1016 119.641C34.4384 131.038 50.9029 138 69 138C87.0971 138 103.562 131.038 115.868 119.641C116.392 119.16 116.906 118.667 117.408 118.162L117.454 118.116C117.7 117.87 117.947 117.639 118.178 117.392L118.193 117.377C118.702 116.869 119.194 116.345 119.672 115.821L119.687 115.806C119.918 115.544 120.165 115.298 120.396 115.036C120.396 115.021 120.411 115.021 120.411 115.005C120.627 114.774 120.842 114.528 121.043 114.281C121.104 114.204 121.166 114.143 121.227 114.066C121.402 113.88 121.571 113.69 121.736 113.496ZM122.367 91.5328C120.242 96.5538 117.439 101.205 114.019 105.425C110.169 102.097 105.958 99.2095 101.467 96.8156C103.254 89.5922 104.362 81.6603 104.655 73.3125H126.757C126.295 79.6118 124.816 85.7263 122.367 91.5328ZM126.757 64.6875H104.655C104.362 56.3397 103.254 48.4078 101.467 41.1844C105.98 38.7817 110.184 35.8862 114.019 32.5748C121.452 41.723 125.898 52.9319 126.757 64.6875ZM91.5328 15.6328C97.6473 18.2203 103.207 21.7935 108.105 26.2908C105.26 28.7134 102.197 30.8685 98.9565 32.7288C96.5384 25.798 93.4426 19.7759 89.8386 14.9551C90.4085 15.1708 90.9783 15.4018 91.5328 15.6328ZM77.5788 123.538C76.1618 124.647 74.7449 125.494 73.3125 126.064V97.4933C79.4238 97.9197 85.4336 99.2806 91.1324 101.529C89.854 105.317 88.3754 108.814 86.6658 111.971C83.9859 116.961 80.844 120.95 77.5788 123.538ZM86.6658 26.029C88.36 29.2018 89.854 32.698 91.1324 36.4714C85.4336 38.7194 79.4238 40.0803 73.3125 40.5067V11.9518C74.7295 12.5217 76.1618 13.3533 77.5788 14.4777C80.844 17.0498 83.9859 21.0388 86.6658 26.029ZM73.3125 88.8529V73.3125H96.0301C95.7837 80.1201 94.9366 86.7274 93.5196 92.996L93.4734 93.1808C87.0098 90.7298 80.2126 89.2706 73.3125 88.8529ZM73.3125 64.6875V49.1471C80.3665 48.7158 87.1433 47.2219 93.4734 44.8192L93.5196 45.004C94.9366 51.2725 95.7837 57.8645 96.0301 64.6875H73.3125ZM64.6875 73.3125V88.8529C57.6335 89.2841 50.8567 90.7781 44.5266 93.1808L44.4804 92.996C43.0634 86.7274 42.2163 80.1355 41.9699 73.3125H64.6875ZM41.9699 64.6875C42.2163 57.8799 43.0634 51.2725 44.4804 45.004L44.5266 44.8192C50.8567 47.2219 57.6181 48.7158 64.6875 49.1471V64.6875H41.9699ZM64.6875 97.4933V126.048C63.2705 125.478 61.8382 124.647 60.4212 123.522C57.156 120.95 53.9987 116.946 51.3187 111.956C49.6246 108.783 48.1306 105.287 46.8522 101.513C52.5817 99.2645 58.5422 97.9246 64.6875 97.4933ZM64.6875 40.5067C58.5762 40.0803 52.5664 38.7194 46.8676 36.4714C48.146 32.6826 49.6245 29.1864 51.3341 26.029C54.0141 21.0388 57.156 17.0344 60.4366 14.4623C61.8536 13.3533 63.2705 12.5062 64.7029 11.9364V40.5067H64.6875ZM46.4672 15.6328C47.0371 15.4018 47.5915 15.1708 48.1614 14.9551C44.5574 19.7759 41.4616 25.798 39.0435 32.7288C35.8092 30.8806 32.7442 28.7243 29.8949 26.2908C34.7926 21.7935 40.3527 18.2203 46.4672 15.6328ZM15.6328 46.4672C17.7583 41.4462 20.5614 36.7949 23.9806 32.5748C27.8156 35.8862 32.0203 38.7817 36.533 41.1844C34.7464 48.4078 33.6375 56.3397 33.3449 64.6875H11.2433C11.7054 58.3882 13.1839 52.2737 15.6328 46.4672ZM11.2433 73.3125H33.3449C33.6375 81.6603 34.7464 89.5922 36.533 96.8156C32.0416 99.2095 27.8314 102.097 23.9806 105.425C16.5481 96.2769 12.1022 85.0681 11.2433 73.3125ZM46.4672 122.367C40.3527 119.78 34.7926 116.206 29.8949 111.709C32.7442 109.276 35.8092 107.135 39.0435 105.271C41.4616 112.202 44.5574 118.224 48.1614 123.045C47.5915 122.829 47.0217 122.598 46.4672 122.367ZM91.5328 122.367C90.9629 122.598 90.4085 122.829 89.8386 123.045C93.4426 118.224 96.5384 112.202 98.9565 105.271C102.191 107.119 105.256 109.276 108.105 111.709C103.235 116.188 97.6283 119.793 91.5328 122.367Z" fill="#301FAF"/>
</svg>
