<svg width="39" height="32" viewBox="0 0 39 32" fill="none" xmlns="http://www.w3.org/2000/svg">
<g clip-path="url(#clip0)">
<path d="M29.9262 12H20.8525V15.5C20.8525 17.9812 18.9243 20 16.5544 20C14.1845 20 12.2563 17.9812 12.2563 15.5V7.9L8.38208 10.3375C7.22996 11.0562 6.52555 12.3625 6.52555 13.7625V16.7187L1.74992 19.6062C0.836575 20.1562 0.520189 21.3812 1.05148 22.3375L5.82712 31C6.35244 31.9562 7.52247 32.2812 8.43581 31.7312L14.6083 28H22.7627C24.87 28 26.5832 26.2062 26.5832 24H27.5384C28.595 24 29.4486 23.1062 29.4486 22V18H29.9262C30.7201 18 31.3589 17.3312 31.3589 16.5V13.5C31.3589 12.6687 30.7201 12 29.9262 12ZM38.7432 9.6625L33.9676 0.999998C33.4422 0.0437484 32.2722 -0.281252 31.3589 0.268748L25.1864 4H19.0855C18.3691 4 17.6707 4.2125 17.0618 4.60625L15.062 5.9125C14.5009 6.275 14.1666 6.91875 14.1666 7.60625V15.5C14.1666 16.8812 15.2351 18 16.5544 18C17.8737 18 18.9422 16.8812 18.9422 15.5V10H29.9262C31.7708 10 33.2691 11.5687 33.2691 13.5V15.2812L38.0448 12.3937C38.9581 11.8375 39.2685 10.6187 38.7432 9.6625Z" fill="#EAE8FF"/>
</g>
<defs>
<clipPath id="clip0">
<rect width="38.2051" height="32" fill="white" transform="translate(0.794861)"/>
</clipPath>
</defs>
</svg>
