<svg width="342" height="254" viewBox="0 0 342 254" fill="none" xmlns="http://www.w3.org/2000/svg">
<g clip-path="url(#clip0)">
<path d="M315.028 61.7438C276.217 7.73692 194.231 -14.1706 113.601 9.42432C70.9736 21.8983 29.8733 46.8916 9.50504 95.2869C-26.9054 181.799 49.543 209.428 99.5319 218.234C123.704 222.492 146.47 229.645 167.273 239.383C204.701 256.903 270.951 272.428 320.907 199.449C357.116 146.553 340.88 97.7177 315.028 61.7438Z" fill="#788BFF"/>
<path d="M90.0158 72.4288C89.9073 71.5705 89.6877 70.7299 89.3626 69.9282C89.3212 69.7765 89.2486 69.6352 89.1495 69.5132C89.0505 69.3911 88.927 69.2911 88.7872 69.2194C88.6002 69.1708 88.4042 69.1686 88.2162 69.213L85.2846 69.6616C85.0392 69.6728 84.8042 69.7641 84.6157 69.9215C84.2338 70.323 84.6098 70.9696 84.5981 71.5236C84.585 72.1466 84.0315 72.6522 83.4313 72.8195C82.8186 72.9433 82.1866 72.9355 81.5772 72.7965L77.4779 72.1595C78.6852 71.774 79.7598 71.0569 80.5791 70.09C81.1185 69.451 81.4055 68.2579 80.6259 67.9552C80.3942 67.8917 80.1527 67.8723 79.9139 67.8981C78.0566 67.9125 76.5951 66.3618 74.8564 65.7087C73.7436 65.3178 72.5357 65.2887 71.4053 65.6256C70.275 65.9626 69.2801 66.6483 68.563 67.5848L70.7468 67.6901C70.9522 67.6788 71.1559 67.7331 71.3284 67.8452C71.807 68.2384 71.212 68.9937 71.2794 69.6094C71.367 70.4094 72.4292 70.5801 73.2298 70.661C74.0305 70.7419 75.0462 71.3924 74.6611 72.099C70.6369 73.4851 66.5419 69.3895 62.3156 69.8936C61.246 70.0212 60.236 70.4415 59.1916 70.7057C52.8122 72.3198 46.217 68.0132 39.7001 68.9253C38.2513 69.1722 36.8273 69.5478 35.4452 70.0474C34.5582 70.3387 33.6331 70.6534 32.9886 71.3288C32.3441 72.0042 32.0988 73.1593 32.7094 73.8655C31.0266 74.0041 29.3326 73.8431 27.706 73.3899C28.1459 73.6344 28.5118 73.9928 28.7654 74.4275C29.0189 74.8622 29.1508 75.3571 29.1472 75.8603C26.5197 76.2888 23.9618 77.0687 21.5423 78.1791C21.9939 78.9301 22.5213 79.6327 23.1163 80.2759L19.79 82.4129C20.9138 82.6961 21.4948 84.2284 20.8413 85.1855C22.0065 84.6671 22.7287 83.3261 23.9747 83.0542C24.791 82.8761 25.6217 83.21 26.3961 83.5237C27.1705 83.8374 28.0216 84.1416 28.8233 83.9062C29.6249 83.6707 30.2162 82.6313 29.7068 81.969C33.1333 80.9692 36.6746 80.416 40.2428 80.3229C40.518 80.2884 40.7972 80.3413 41.0407 80.4743C41.5052 80.7966 41.383 81.4926 41.358 82.0574C41.3329 82.6222 41.7731 83.3644 42.2779 83.1099C41.684 83.6248 42.1917 84.5943 42.7615 85.1358C43.3312 85.6773 44.0179 86.4245 43.6691 87.1289C43.5781 87.3128 43.4237 87.4599 43.3361 87.6454C43.0775 88.193 43.488 88.8314 43.9722 89.195C44.4565 89.5586 45.0496 89.8128 45.3859 90.3163C45.7223 90.8199 45.5695 91.7013 44.9681 91.7716L43.2585 89.601C42.6744 90.2067 42.274 90.9655 42.1037 91.7895C43.9165 93.2715 44.1892 96.2879 42.6715 98.0709C41.8959 98.9821 40.793 99.5358 39.8303 100.246C38.8677 100.957 37.977 101.969 37.9794 103.166C37.9836 105.233 37.8147 107.154 38.5893 109.07C40.0178 112.604 41.667 116.045 43.5272 119.372C44.0157 120.246 44.647 121.203 45.6366 121.354C44.3859 118.309 43.2601 115.217 42.2591 112.078C42.9111 112.08 43.6645 112.132 44.0467 112.66C44.3632 113.098 44.2952 113.692 44.3936 114.223C44.5187 114.738 44.7272 115.228 45.011 115.675L50.9832 126.313C51.4783 127.195 52.0462 128.142 52.9924 128.499C53.5973 128.727 54.2972 128.684 54.8541 129.013C55.2905 129.27 55.5845 129.728 56.0294 129.971C57.2875 130.657 59.037 129.341 60.2127 130.16C60.5488 130.394 60.7627 130.767 61.0725 131.035C62.1583 131.975 63.9396 131.346 65.1931 132.048C66.001 132.5 66.4196 133.404 66.8505 134.223C67.9299 136.276 69.6764 138.286 71.9895 138.45C72.7162 138.501 73.4584 138.363 74.1686 138.525C74.8789 138.687 75.578 139.306 75.464 140.026C75.2686 141.259 75.878 142.61 75.7143 143.848C75.4162 146.103 72.2175 147.094 71.9427 149.352C71.8826 149.846 71.9767 150.357 71.859 150.841C71.7147 151.434 71.2693 151.917 71.111 152.506C70.811 153.624 71.6115 154.735 72.4908 155.487C73.3701 156.239 74.419 156.887 74.8997 157.939C75.4079 159.051 75.1583 160.348 75.3235 161.559C75.6843 164.204 77.9687 166.165 80.3196 167.429C81.0359 167.814 81.805 168.187 82.2686 168.855C82.8737 169.727 82.8134 170.877 83.0155 171.919C83.5103 174.471 85.6588 176.574 85.7198 179.173C85.7631 181.02 84.7363 182.696 84.1229 184.439C83.5478 186.109 83.3397 187.883 83.5128 189.641C83.6859 191.399 84.236 193.099 85.1257 194.624C85.5846 195.399 86.1334 196.13 86.458 196.97C87.0373 198.469 86.8493 200.172 87.3834 201.688C88.0895 203.692 90.0297 205.347 89.844 207.463C90.7249 209.292 92.67 210.191 94.6258 210.736L98.1312 211.711C98.8024 211.898 99.5038 212.087 100.187 211.951C100.871 211.816 101.523 211.248 101.505 210.552C99.7863 210.164 98.0122 209.752 96.5952 208.705C95.1781 207.657 94.2075 205.792 94.7451 204.114C94.9944 203.335 95.5248 202.437 95.0205 201.794C94.7318 201.426 94.2039 201.329 93.8782 200.994C93.3703 200.47 93.5448 199.59 93.91 198.958C94.2751 198.326 94.8029 197.761 94.9502 197.047C95.0246 196.647 94.9749 196.234 94.8078 195.863C94.6408 195.492 94.3644 195.182 94.0156 194.972C94.6656 194.727 95.2567 194.348 95.7506 193.859C96.2069 193.338 96.4177 192.535 96.0588 191.942C97.1246 192.078 98.383 192.144 99.0827 191.328C99.6414 190.677 99.6031 189.704 99.3823 188.875C99.1615 188.046 98.7884 187.24 98.7767 186.383C101.236 186.499 103.7 186.416 106.145 186.133C105.791 184.942 104.988 183.936 103.905 183.327C105.012 183.14 106.021 181.814 106.371 180.747C106.721 179.679 106.632 178.517 106.415 177.415C106.332 177.131 106.321 176.831 106.382 176.542C106.507 176.144 106.897 175.902 107.259 175.694L112.756 172.537C113.084 172.373 113.381 172.153 113.635 171.888C114.211 171.212 114.125 170.191 113.83 169.353C113.535 168.515 113.063 167.726 112.95 166.845C112.61 164.21 115.431 162.319 116.383 159.839C116.756 158.865 116.833 157.807 116.905 156.767C116.983 155.649 116.988 154.352 116.13 153.632C115.308 152.942 114.023 153.096 113.163 152.454C112.374 151.865 112.102 150.722 111.24 150.247C110.457 149.815 109.476 150.089 108.605 149.886C107.073 149.529 106.108 147.762 104.543 147.599C103.66 147.507 102.66 147.938 101.936 147.424C101.299 146.971 101.273 146.06 101.152 145.287C100.939 144.086 100.363 142.978 99.5019 142.114C98.6406 141.25 97.5353 140.671 96.3347 140.454C95.4241 140.308 94.433 140.364 93.6583 139.863C92.8739 139.357 92.5142 138.408 91.8981 137.706C90.9051 136.575 89.3411 136.174 87.876 135.829L81.9165 134.428C80.8586 134.179 79.495 134.048 78.9273 134.974C78.7592 135.327 78.6403 135.701 78.5737 136.086C78.361 136.783 77.9329 137.394 77.3509 137.832C76.769 138.27 76.0631 138.513 75.3349 138.524C74.8354 137.672 74.0263 137.046 73.0763 136.777C72.472 136.608 71.8251 136.589 71.2488 136.342C70.9349 136.188 70.6556 135.973 70.428 135.708C70.2003 135.443 70.0291 135.135 69.9248 134.801C69.8206 134.468 69.7854 134.117 69.8216 133.769C69.8577 133.422 69.9643 133.086 70.135 132.781C70.4785 132.169 70.6112 131.461 70.5126 130.767C70.4139 130.072 70.0893 129.429 69.5889 128.937C68.5755 128.027 67.1095 127.808 65.7505 127.899C65.3946 127.122 65.9897 126.246 66.631 125.681C67.2723 125.117 68.051 124.562 68.1906 123.719C68.4103 122.394 66.7188 121.387 65.4345 121.782C64.1502 122.177 63.3305 123.425 62.7887 124.655C62.4778 125.36 62.2135 126.103 61.7231 126.698C61.2326 127.293 60.4429 127.719 59.6959 127.528C58.6384 127.258 58.23 126.001 57.9959 124.935C57.6819 123.505 57.3661 122.054 57.4319 120.592C57.4977 119.129 57.9909 117.626 59.0696 116.636C60.8276 115.022 63.5243 115.18 65.8968 115.438C65.3363 114.806 65.4748 113.742 66.0745 113.148C66.3911 112.866 66.7715 112.666 67.1828 112.565C67.5941 112.464 68.0238 112.465 68.4347 112.568C69.1496 112.717 69.7936 113.102 70.263 113.661C70.9372 114.483 71.1289 115.593 71.6385 116.526C72.1481 117.459 73.294 118.254 74.2319 117.754C75.0419 117.322 75.1705 116.198 74.9689 115.302C74.7673 114.407 74.3391 113.536 74.4121 112.62C74.5515 110.874 76.3619 109.822 77.9596 109.103C79.5572 108.384 81.3866 107.416 81.6397 105.683C81.6484 105.343 81.7124 105.007 81.8293 104.689C82.0065 104.407 82.2527 104.175 82.5447 104.016C87.2074 100.934 91.9478 97.8154 97.2771 96.1317C97.5543 96.0441 97.5869 96.1414 97.8695 96.0728C98.2649 95.8442 98.0029 95.2119 97.6237 94.9572C97.2446 94.7025 96.7378 94.5072 96.6416 94.0607C96.5709 93.7324 96.7643 93.4101 96.8145 93.0781C96.938 92.2624 95.962 91.5092 95.2042 91.8353C94.7761 91.2684 95.6231 90.6096 96.3081 90.421C98.3648 89.855 100.476 89.5101 102.606 89.3922C102.852 89.3531 103.104 89.396 103.323 89.5141C103.68 89.7619 103.635 90.3303 103.381 90.684C103.128 91.0377 102.733 91.2598 102.417 91.5591C102.072 91.8953 101.826 92.32 101.706 92.7866C101.585 93.2532 101.595 93.7439 101.735 94.2052C102.847 94.7708 104.056 95.3531 105.287 95.1538C106.519 94.9545 107.612 93.5708 107.033 92.4657C106.494 91.4366 104.875 91.2045 104.596 90.0767C104.27 88.7561 106.14 87.5816 105.718 86.2883C105.534 85.7217 104.969 85.3883 104.536 84.9793C104.025 84.4778 103.676 83.8333 103.538 83.1304C103.399 82.4275 103.476 81.6992 103.759 81.0409C103.053 81.165 102.328 81.1181 101.644 80.9041C100.96 80.6902 100.338 80.3153 99.8289 79.811C98.8889 78.8624 98.1389 77.3659 96.8041 77.4083C95.5792 77.4472 94.5241 78.8763 93.3787 78.4403C93.0969 78.3331 92.7998 78.1148 92.5268 78.2427C92.4373 78.3008 92.3622 78.3785 92.3072 78.4698C92.2521 78.5612 92.2185 78.6639 92.209 78.7702C91.9179 80.1618 92.4187 81.7474 91.6602 82.9499C90.8348 84.2585 88.9258 84.4399 87.9252 85.6199C87.382 86.2605 87.1716 87.1237 86.6723 87.799C86.1731 88.4743 85.1134 88.9037 84.5143 88.3152C84.8088 87.7098 84.8892 87.0225 84.7424 86.3655C84.5956 85.7085 84.2303 85.1208 83.7062 84.6983C83.15 84.3354 82.5504 84.0437 81.9215 83.8302C81.2187 83.5327 80.5502 83.1601 79.9276 82.7189C79.6157 82.5308 79.3622 82.2596 79.1956 81.9357C79.0638 81.5301 79.0815 81.0908 79.2456 80.6971C79.5494 79.8261 80.0854 79.0546 80.7957 78.4659C81.5059 77.8772 82.3635 77.4937 83.2758 77.3568C84.0735 77.2483 85.0019 77.2865 85.5299 76.6787C85.8092 76.3571 85.9558 75.8708 86.3612 75.7402C86.6206 75.6881 86.8898 75.7213 87.1288 75.8347L90.1063 76.8828C90.4386 77.0328 90.8042 77.0932 91.1671 77.0582C91.347 77.034 91.511 76.9426 91.6264 76.8024C91.7417 76.6623 91.7998 76.4837 91.7889 76.3025C91.6938 75.808 90.9329 75.5707 91.0021 75.072C91.0409 74.9103 91.1278 74.7643 91.2513 74.6531C92.3259 73.5093 93.64 72.6174 95.0997 72.041C96.5593 71.4646 98.1283 71.218 99.6944 71.3189C100.07 71.9362 99.4758 72.6671 98.9813 73.194C98.4867 73.7209 98.0893 74.6624 98.6874 75.068C98.9325 75.193 99.2051 75.2544 99.4802 75.2465C100.213 75.3457 100.926 75.5618 101.59 75.8865C102.619 76.3343 103.628 76.8242 104.618 77.3563C104.53 76.7039 104.447 76.0167 104.694 75.4067C104.942 74.7967 105.644 74.3183 106.258 74.5558C106.85 74.7848 107.153 75.5681 107.783 75.6398C108.624 75.7356 108.956 74.4935 108.605 73.7237C108.253 72.9539 107.558 72.3092 107.5 71.4651C107.461 70.8956 107.678 70.1893 107.223 69.8444C107.061 69.7409 106.877 69.6764 106.686 69.6562L95.3274 67.566C94.6529 67.4419 93.6783 67.537 93.6484 68.2222C93.6317 68.6046 93.9734 68.983 93.8221 69.3347C93.6606 69.71 93.13 69.6757 92.7436 69.8084C92.144 70.0144 91.8432 70.7263 91.9007 71.3577C92.0062 71.985 92.2491 72.5812 92.6122 73.1036C91.8734 72.7946 90.7547 72.7378 90.0158 72.4288Z" fill="#1C1A2B"/>
<path d="M80.9527 62.7866C80.2364 62.5496 79.4646 62.5385 78.7418 62.755C78.0191 62.9714 77.3804 63.4049 76.9123 63.9966C76.7253 64.2429 76.5682 64.5824 76.7248 64.849C76.9492 65.2313 77.5212 65.0803 77.9429 64.9436C78.5628 64.7221 79.2374 64.706 79.8671 64.8977C80.2631 65.0336 80.6173 65.2739 81.015 65.4047C81.2086 65.4857 81.4206 65.5124 81.6283 65.4821C81.8359 65.4517 82.0314 65.3655 82.1937 65.2325C82.4667 64.9541 82.4838 64.5213 82.4843 64.1314C82.5032 64.001 82.4928 63.8679 82.4537 63.742C82.4147 63.6161 82.348 63.5005 82.2586 63.4037C82.0994 63.3115 81.9205 63.2585 81.7368 63.2493C81.3253 63.1731 80.9533 62.9558 80.6849 62.6347" fill="#1C1A2B"/>
<path d="M85.0484 61.6463C84.8881 61.6376 84.7283 61.6702 84.5843 61.7411C84.4402 61.812 84.3169 61.9188 84.226 62.0512C84.1352 62.1835 84.08 62.337 84.0656 62.4969C84.0512 62.6568 84.0783 62.8177 84.1441 62.9641C84.6363 63.0984 85.1506 63.1319 85.6562 63.0627C85.9083 63.0236 86.1432 62.9107 86.3313 62.7382C86.5194 62.5658 86.6522 62.3415 86.7131 62.0937C86.1179 62.202 85.5037 62.0847 84.9903 61.7647" fill="#1C1A2B"/>
<path d="M98.7901 59.7418C97.4502 60.0267 96.1487 60.4688 94.9126 61.059C95.4953 61.283 95.9907 61.6883 96.3257 62.2151C96.6607 62.7419 96.8176 63.3624 96.7733 63.9851C96.721 64.2242 96.727 64.4724 96.7909 64.7086C96.9333 65.0538 97.346 65.1834 97.7088 65.272C98.3606 65.4704 99.0412 65.5572 99.7219 65.529C100.062 65.5111 100.393 65.4087 100.684 65.2309C100.975 65.0531 101.217 64.8056 101.388 64.5107C101.487 64.2308 101.603 63.9572 101.735 63.6915C102.604 62.3671 105.188 63.9685 106.121 62.6885C106.45 62.2375 106.42 61.5588 106.849 61.2015C107.071 61.0458 107.328 60.9477 107.597 60.9161C109.475 60.543 111.371 60.2729 113.278 60.1069C114.182 60.0283 115.36 59.7038 115.367 58.7968C111.964 58.1284 108.435 58.6031 105.329 60.1473C104.21 60.7078 102.73 61.8868 101.652 61.1437C101.248 60.8655 101.268 60.1163 100.713 59.8035C100.145 59.4836 99.3929 59.6137 98.7901 59.7418Z" fill="#1C1A2B"/>
<path d="M109.921 61.8233L111.518 62.1303C111.224 62.1172 110.931 62.1671 110.658 62.2765C110.384 62.3859 110.137 62.5523 109.934 62.7646C109.73 62.9769 109.573 63.2303 109.475 63.5078C109.377 63.7853 109.339 64.0806 109.364 64.3739C110.86 64.8737 112.491 64.3874 114.067 64.4538C115.643 64.5202 117.477 65.646 117.208 67.2004C117.127 67.6704 116.855 68.14 116.996 68.5956C117.095 68.9149 117.377 69.1415 117.536 69.4356C117.867 70.0484 117.602 70.8236 117.184 71.3807C116.766 71.9378 116.204 72.3823 115.837 72.9743C114.923 74.4468 115.442 76.3504 115.986 77.9954C116.143 78.617 116.434 79.1969 116.837 79.6952C117.643 80.552 118.956 80.6266 120.133 80.6437C120.989 80.6562 121.969 80.6139 122.511 79.9507C123.217 79.0848 122.723 77.7338 123.188 76.7176C123.611 75.7946 124.688 75.3987 125.663 75.1179C127.45 74.6034 129.271 74.166 130.961 73.3889C133.059 72.4239 135.02 70.9201 137.325 70.7959C137.972 70.7611 138.635 70.8374 139.258 70.6602C139.882 70.4829 140.473 69.9442 140.426 69.298C140.386 68.746 139.919 68.3406 139.554 67.9244C139.189 67.5082 138.902 66.8683 139.238 66.428L145.282 65.299C144.853 64.1315 144.52 62.5938 145.504 61.8338C145.859 61.5596 146.335 61.45 146.637 61.1185C147.153 60.5535 146.894 59.5802 146.299 59.0997C145.704 58.6192 144.899 58.5076 144.137 58.4443C141.487 58.2242 138.821 58.3697 136.166 58.5152C130.975 58.7997 125.785 59.0842 120.594 59.3688C119.55 59.426 118.343 59.3385 117.385 59.695C116.574 59.9968 115.997 60.5508 115.069 60.7454C113.356 61.1047 111.471 60.8616 109.921 61.8233Z" fill="#1C1A2B"/>
<path d="M138.543 74.4519C138.38 74.4261 138.214 74.4639 138.078 74.5573C137.988 74.6562 137.935 74.7827 137.926 74.9159C137.823 75.5041 137.946 76.1095 138.27 76.611C138.436 76.8569 138.664 77.0542 138.931 77.1823C139.198 77.3104 139.495 77.3647 139.79 77.3394C140.509 77.2477 141.039 76.6339 141.701 76.3344C142.72 75.8733 147.049 75.1544 144.054 73.5365C143.022 72.979 142.356 73.4712 141.542 73.8383C140.617 74.3118 139.58 74.5239 138.543 74.4519Z" fill="#1C1A2B"/>
<path d="M164.772 60.9099C164.422 61.0528 164.129 61.3074 163.94 61.634C163.852 61.7999 163.832 61.993 163.883 62.1734C163.934 62.3538 164.052 62.5077 164.214 62.6033C164.344 62.6506 164.483 62.6726 164.622 62.668L166.043 62.7105C166.647 62.7285 167.402 62.8571 167.564 63.4392C167.685 63.8714 167.415 64.4268 167.741 64.7356C167.88 64.8438 168.048 64.9093 168.224 64.9243C168.693 65.0446 169.182 65.0604 169.657 64.9705C170.691 64.693 170.148 64.0617 170.473 63.4995C170.972 62.6393 170.886 63.16 171.764 62.667C172.413 62.3029 173.251 61.6424 172.71 60.7145C171.768 59.1008 166.161 60.2167 164.772 60.9099Z" fill="#1C1A2B"/>
<path d="M192.834 60.0986L192.009 60.2088C190.147 60.4573 188.275 60.708 186.481 61.267C187.258 61.5739 188.072 61.7737 188.902 61.861C189.359 61.8834 189.813 61.9479 190.258 62.0537C191.05 62.2895 191.848 62.8983 192.613 62.5865C193.087 62.3931 193.242 61.8991 193.635 61.6373C193.907 61.4566 194.936 61.164 195.051 60.9815C195.981 59.5065 193.549 60.0032 192.834 60.0986Z" fill="#1C1A2B"/>
<path d="M196.459 63.8509C195.357 64.4676 194.333 65.2169 193.413 66.0821C193.025 66.4467 192.629 66.9003 192.664 67.4315C192.71 68.1375 193.463 68.5471 194.114 68.8229L196.753 69.9403C197.074 69.4891 196.781 68.8661 196.45 68.4227C196.119 67.9792 195.726 67.4661 195.872 66.9325C196.039 66.3235 196.781 66.116 197.404 66.011C198.418 65.8401 201.155 65.8538 200.826 64.2188C200.439 62.2924 197.478 63.2817 196.459 63.8509Z" fill="#1C1A2B"/>
<path d="M195.929 172.872C195.677 173.6 195.654 174.457 196.088 175.092C196.576 175.804 197.552 176.07 198.396 175.889C199.237 175.665 199.987 175.184 200.539 174.511C201.045 173.948 201.46 173.311 201.772 172.621C202.207 171.547 202.513 170.425 202.685 169.278L203.505 164.976C203.688 164.014 203.681 161.066 201.914 162.027C201.431 162.289 200.313 164.361 199.807 164.948C198.895 166.007 198.774 167.035 198.294 168.317C197.693 169.924 196.484 171.263 195.929 172.872Z" fill="#1C1A2B"/>
<path d="M289.272 194.889C288.694 194.664 288.133 194.396 287.593 194.09C287.052 195.578 286.764 197.146 286.741 198.73L290.699 196.49C291.294 196.154 291.969 195.685 291.956 195.002C291.961 194.917 291.944 194.833 291.905 194.757C291.867 194.682 291.809 194.619 291.737 194.573C291.649 194.538 291.553 194.527 291.46 194.541C290.873 194.59 290.338 194.878 289.784 195.079C289.231 195.28 288.584 195.386 288.076 195.088" fill="#1C1A2B"/>
<path d="M310.147 196.219C309.712 196.337 309.288 196.489 308.878 196.674C307.97 197.136 307.352 198.014 306.535 198.622C305.753 199.205 304.811 199.524 303.887 199.835C303.615 200.075 303.74 200.559 304.035 200.77C304.353 200.951 304.717 201.033 305.081 201.005C306.041 201.027 307.052 201.036 307.893 200.572C308.367 200.265 308.81 199.913 309.217 199.521C310.2 198.701 311.381 198.16 312.55 197.636C312.975 197.476 313.369 197.241 313.711 196.942C314.446 196.218 314.498 195.102 313.439 194.856C312.583 194.657 310.961 195.955 310.147 196.219Z" fill="#1C1A2B"/>
<path d="M319.37 190.194C319.418 189.696 319.351 189.194 319.176 188.725C319.002 188.257 318.722 187.834 318.36 187.489C318.349 188.485 318.319 189.546 317.759 190.37C317.36 190.957 316.734 191.354 316.296 191.913C315.859 192.472 315.665 193.358 316.178 193.849C316.506 194.098 316.905 194.236 317.317 194.241C318.338 194.361 319.52 194.428 320.237 193.69C320.627 193.288 320.818 192.691 321.294 192.395C321.472 192.321 321.631 192.207 321.759 192.063C321.955 191.75 321.643 191.338 321.291 191.225C320.938 191.112 320.55 191.165 320.197 191.058C319.843 190.951 319.518 190.553 319.7 190.231" fill="#1C1A2B"/>
<path d="M302.977 153.671C302.442 153.801 301.887 153.834 301.339 153.767C300.43 153.6 299.723 152.915 298.989 152.353C297.244 151.025 295.123 150.284 292.931 150.236C290.936 150.199 288.923 150.739 286.964 150.362C287.092 151.074 287.701 151.608 288.351 151.925C289.001 152.242 289.718 152.402 290.371 152.713C291.417 153.216 292.247 154.079 292.708 155.144C292.918 155.635 293.05 156.169 293.369 156.597C294.02 157.474 295.255 157.666 296.344 157.594C297.764 157.501 299.247 157.093 300.569 157.622C301.579 158.026 302.303 158.911 303.147 159.599C303.991 160.287 305.179 160.797 306.148 160.301C305.142 159.975 304.266 159.336 303.648 158.477C303.03 157.618 302.703 156.584 302.715 155.526C303.665 155.614 306.403 155.58 306.256 153.965C306.131 152.596 303.794 153.523 302.977 153.671Z" fill="#1C1A2B"/>
<path d="M290.544 164.807C290.712 163.881 291.635 163.064 291.348 162.168C291.149 161.548 290.431 161.242 289.78 161.227C289.13 161.212 288.491 161.406 287.84 161.424C287.417 161.401 286.993 161.407 286.57 161.442C285.279 161.654 284.483 163.007 283.266 163.488C282.527 163.781 281.695 163.725 280.926 163.927C279.179 164.387 278.074 166.037 276.853 167.368C274.88 169.508 272.31 171.007 269.476 171.67C268.483 171.9 267.415 172.047 266.626 172.692C265.581 173.546 265.323 175.01 265.091 176.34C264.448 180.012 263.466 183.617 262.157 187.108L266.305 187.638C267.093 187.738 267.91 187.837 268.67 187.603C269.222 187.395 269.745 187.116 270.226 186.774C272.073 185.628 274.14 184.881 276.294 184.584C277.38 184.435 278.519 184.408 279.538 184.811C280.557 185.215 281.432 186.131 281.517 187.223C281.958 187.086 282.427 187.072 282.876 187.181C283.324 187.29 283.735 187.519 284.063 187.843C284.713 188.504 285.138 189.353 285.279 190.27C285.388 190.837 285.498 191.517 286.024 191.755C286.454 191.949 286.947 191.74 287.416 191.703C289.011 191.575 290.334 193.434 291.901 193.114C293.582 192.771 293.995 190.253 295.635 189.749C296.576 189.459 297.897 189.812 298.348 188.936C298.746 188.163 297.953 187.272 298.035 186.408C298.135 185.343 299.391 184.891 300.359 184.437C303.697 182.871 305.281 178.379 303.663 175.066C302.705 173.103 300.82 171.558 300.471 169.401C300.203 167.742 300.857 165.808 299.8 164.502C299.262 163.837 298.35 163.471 298.03 162.678C297.829 162.179 297.91 161.613 297.801 161.086C297.693 160.559 297.233 160.007 296.712 160.144C295.201 160.541 294.719 165.208 293.91 166.342C292.681 168.066 290.156 166.93 290.544 164.807Z" fill="#1C1A2B"/>
<path d="M262.616 155.434C262.1 155.289 261.536 155.147 261.041 155.354C260.547 155.561 260.258 156.287 260.655 156.647C263.761 156.526 266.886 156.406 269.966 156.828C273.515 157.314 277.027 158.518 280.591 158.164C278.555 157.563 276.485 157.083 274.393 156.726L270.904 156.059C269.968 155.863 269.022 155.717 268.07 155.621C266.08 155.457 264.573 155.983 262.616 155.434Z" fill="#1C1A2B"/>
<path d="M265.726 144.615C265.468 144.594 265.149 144.575 265.015 144.797C264.888 145.009 265.034 145.289 264.965 145.526C264.871 145.851 264.446 145.934 264.112 145.89C263.777 145.845 263.415 145.74 263.118 145.901C262.967 146.004 262.854 146.153 262.796 146.325C262.737 146.498 262.736 146.685 262.792 146.858C262.914 147.202 263.11 147.514 263.367 147.773C263.805 148.326 264.305 148.828 264.857 149.268C265.924 150.056 267.371 150.436 268.043 151.58C268.138 151.802 268.284 151.998 268.469 152.153C268.792 152.357 269.213 152.202 269.56 152.043L270.779 151.486C270.998 151.407 271.194 151.274 271.348 151.099C271.626 150.721 271.455 150.184 271.222 149.777C270.988 149.371 270.689 148.949 270.739 148.483C270.829 147.651 271.898 147.333 272.338 146.622C272.781 145.904 272.492 144.98 272.543 144.139C272.603 143.154 273.222 141.874 272.227 141.139C271.381 140.514 270.573 141.091 269.965 141.781C268.685 143.236 268.08 144.812 265.726 144.615Z" fill="#1C1A2B"/>
<path d="M273.121 129.909C273.537 130.705 274.404 131.181 274.858 131.956C275.349 132.797 275.293 133.883 275.827 134.698C276.374 135.534 277.475 135.978 277.782 136.928C278.117 137.967 277.357 139.228 277.963 140.135C278.076 140.284 278.218 140.407 278.381 140.497C278.544 140.587 278.724 140.643 278.91 140.66C279.096 140.677 279.283 140.655 279.46 140.596C279.637 140.537 279.799 140.442 279.937 140.317C280.193 140.039 280.329 139.672 280.318 139.294C280.307 138.917 280.149 138.558 279.877 138.296C279.519 137.969 279.004 137.827 278.704 137.445C278.548 137.225 278.444 136.972 278.4 136.705C278.237 135.937 278.263 135.14 278.476 134.383C278.556 134.192 278.577 133.98 278.535 133.776C278.4 133.384 277.869 133.356 277.497 133.175C276.651 132.762 276.671 131.567 276.819 130.638C276.72 131.257 274.515 130.204 274.285 129.853C273.826 129.157 274.075 127.813 273.985 127.043C272.994 127.52 272.612 128.935 273.121 129.909Z" fill="#1C1A2B"/>
<path d="M250.907 142.162C250.5 141.707 249.887 141.23 249.341 141.505C248.925 141.714 248.81 142.29 248.973 142.727C249.172 143.151 249.478 143.516 249.861 143.785C250.998 144.723 252.223 145.57 253.215 146.66C254.99 148.611 255.93 151.243 257.861 153.04C258.249 153.457 258.763 153.735 259.324 153.832C259.886 153.884 260.518 153.524 260.583 152.963C260.636 152.501 260.314 152.087 259.999 151.744C259.249 150.929 258.428 150.178 257.72 149.325C257.393 148.998 257.187 148.569 257.137 148.109C257.134 147.65 257.552 147.169 257.997 147.283C257.456 147.145 257.055 146.244 256.261 146.075C255.598 145.933 255.437 146.344 254.648 146.005C253.142 145.359 251.961 143.343 250.907 142.162Z" fill="#1C1A2B"/>
<path d="M286.285 97.7993C285.853 97.6709 285.428 97.5193 285.013 97.3449C283.895 97.0094 282.416 97.8311 282.565 98.9887C282.664 99.7579 283.38 100.276 283.775 100.944C284.361 101.933 284.205 103.188 283.897 104.296C283.821 104.639 283.678 104.963 283.474 105.25C283.189 105.552 282.849 105.797 282.472 105.97C280.963 106.817 279.631 107.948 278.552 109.301C278.434 109.426 278.353 109.58 278.315 109.747C278.262 110.138 278.655 110.423 278.877 110.749C279.37 111.473 279.013 112.448 279.062 113.322C279.055 113.446 279.079 113.57 279.133 113.681C279.186 113.793 279.268 113.889 279.369 113.961C279.666 114.112 280.019 113.855 280.18 113.563C280.715 112.594 280.312 111.038 281.315 110.571C281.505 110.483 281.735 110.446 281.862 110.279C282.063 110.014 281.869 109.623 281.971 109.306C282.124 108.832 282.773 108.81 283.271 108.831C284.13 108.867 284.988 108.753 285.807 108.494C286.128 108.417 286.42 108.248 286.646 108.008C286.946 107.633 286.919 107.101 286.859 106.625C286.559 104.252 285.808 101.959 284.645 99.8682C285.527 99.9808 286.486 100.078 287.246 99.6189C287.672 99.3617 288.183 98.5924 287.972 98.0688C287.638 97.2408 287.034 97.9377 286.285 97.7993Z" fill="#1C1A2B"/>
<path d="M173.276 110.85C173.381 111.416 173.485 112.012 173.3 112.557C173.114 113.102 172.531 113.557 171.98 113.39C171.553 113.26 171.306 112.83 171.002 112.503C169.314 110.68 165.506 111.736 164.463 109.481C164.037 108.561 164.327 107.459 164.036 106.487C163.853 105.926 163.489 105.441 163 105.109C162.512 104.778 161.927 104.617 161.338 104.654C160.8 104.732 160.277 104.888 159.785 105.118C156.488 106.438 153.027 107.304 149.496 107.691C148.826 107.732 148.162 107.853 147.52 108.051C146.07 108.576 145.08 109.92 144.375 111.291C143.67 112.663 143.149 114.147 142.204 115.366C141.211 116.646 139.82 117.543 138.521 118.513C138.021 118.835 137.605 119.271 137.306 119.786C137.025 120.364 137.041 121.036 137.063 121.678L137.328 129.48C137.362 130.483 137.405 131.523 137.854 132.421C138.415 133.542 139.523 134.276 140.291 135.267C141.076 136.285 141.484 137.543 141.448 138.827C141.432 139.344 141.38 139.955 141.782 140.279C142.027 140.438 142.313 140.52 142.605 140.516L153.158 141.379C155.014 141.531 157.072 141.781 158.284 143.195C158.856 143.863 159.315 144.823 160.191 144.894C160.567 144.925 160.933 144.771 161.309 144.741C162.257 144.666 163.09 145.386 163.616 146.178C164.412 147.387 164.773 148.83 164.64 150.271C164.554 151.175 164.274 152.054 164.213 152.961C163.983 156.41 166.907 159.406 166.964 162.862C166.997 164.896 166.032 166.795 165.091 168.597C166.61 170.898 165.366 173.962 165.971 176.651C166.544 179.203 168.672 181.2 169.202 183.761C169.445 184.933 169.459 186.376 170.492 186.98C170.946 187.201 171.449 187.302 171.953 187.272C174.992 187.308 177.996 186.625 180.719 185.277C181.998 184.642 183.323 183.695 183.546 182.286C183.726 181.149 183.149 179.878 183.736 178.887C184.428 177.721 186.199 177.813 187.216 176.916C188.866 175.46 187.579 172.684 188.248 170.588C188.849 168.704 190.918 167.702 191.944 166.011C192.347 165.284 192.637 164.499 192.803 163.684C193.272 161.735 193.565 159.748 193.676 157.747C193.704 156.531 193.793 155.318 193.945 154.111C195.051 147.241 201.842 142.641 204.047 136.042C204.258 135.411 204.357 134.572 203.796 134.215C203.463 134.057 203.086 134.017 202.728 134.104L197.863 134.717C197.259 134.793 196.619 134.864 196.064 134.613C195.509 134.362 195.111 133.66 195.405 133.127C196.232 131.631 194.532 129.739 193.777 128.205C191.744 124.076 189.322 120.148 186.545 116.477C186.367 116.288 186.256 116.046 186.228 115.788L187.609 115.834C187.143 114.162 186.373 112.332 184.749 111.72C183.833 111.375 182.819 111.495 181.842 111.548C179.044 111.701 176.045 111.278 173.276 110.85Z" fill="#1C1A2B"/>
<path d="M181.845 73.1633C182.577 73.9408 183.397 74.7651 184.457 74.9006C186.328 75.14 187.673 73.2052 188.529 71.5246C188.561 71.953 188.759 72.3522 189.08 72.6372C189.402 72.9222 189.822 73.0705 190.251 73.0507C190.713 72.973 191.153 72.8006 191.546 72.5445C195.253 70.5186 199.405 69.4452 203.629 69.4207C203.589 69.1007 203.668 68.777 203.852 68.5121C204.036 68.2471 204.312 68.0598 204.626 67.9861C205.485 67.8158 206.259 68.5584 206.673 69.3298C207.087 70.1012 207.346 70.9953 208.004 71.5727C208.662 72.1501 209.937 72.125 210.197 71.2888C210.446 70.4861 209.61 69.8015 208.915 69.3283C208.221 68.855 207.488 67.9791 207.956 67.2807C211.506 66.4949 215.077 65.7063 218.709 65.5501C219.327 65.5716 219.944 65.4655 220.519 65.2383C221.073 64.9665 221.513 64.3495 221.364 63.7507C220.572 63.937 219.742 63.8831 218.98 63.5957C218.218 63.3084 217.559 62.8006 217.087 62.1373C222.127 61.7214 227.487 61.3669 231.953 63.7383C232.489 64.8889 229.758 65.8462 230.488 66.8839C230.722 67.2149 231.189 67.2537 231.593 67.2613C234.697 67.3189 237.819 67.3754 240.887 66.9068C242.009 66.7356 243.142 66.4938 244.268 66.6327C246.143 66.864 247.747 68.1152 249.592 68.5232C250.343 68.6893 251.185 68.6949 251.818 68.2581C252.451 67.8214 252.723 66.8269 252.204 66.2591C253.941 64.5566 256.824 64.9785 259.116 65.7936C261.408 66.6087 263.579 67.9231 266.004 68.1048C267.743 68.2351 269.507 67.7673 271.225 68.0646C272.305 68.2515 273.311 68.732 274.366 69.0271C276.363 69.5854 278.474 69.4676 280.547 69.4944C285.836 69.5657 291.067 70.6051 295.981 72.5613C296.62 72.7694 297.206 73.1155 297.697 73.575C298.154 74.0646 298.387 74.8255 298.08 75.4209L293.002 74.6789C293.48 75.6208 294.718 75.7813 295.723 76.1062C296.729 76.4311 297.771 77.5412 297.167 78.4078C296.078 78.061 295.091 79.1499 294.541 80.1518C293.99 81.1537 293.32 82.3536 292.179 82.4146C291.156 82.4693 289.92 81.599 289.254 82.3761C290.174 83.5372 290.963 84.7972 291.604 86.1329C292.262 87.5041 292.731 89.2318 291.841 90.4655C291.701 90.6858 291.489 90.8504 291.241 90.9311C290.514 91.115 290.042 90.2262 289.521 89.6875C288.865 89.0087 287.872 88.8164 286.983 88.498C286.094 88.1796 285.157 87.5534 285.087 86.6115C285.044 86.0255 285.354 85.4808 285.581 84.9392C285.964 84.0263 286.132 83.0375 286.071 82.0494C286.021 81.2544 285.798 80.4275 285.227 79.8721C284.656 79.3167 283.671 79.1405 283.058 79.6492C282.772 79.8865 282.543 80.2662 282.171 80.2804C281.515 80.3055 281.011 79.1615 280.483 79.552C280.545 79.9681 280.459 80.3928 280.24 80.7517C278.664 82.1218 276.244 81.5422 274.213 82.0262C273.247 82.3026 272.323 82.7064 271.464 83.2269C271.142 83.3643 270.869 83.5939 270.678 83.8866C270.424 84.3792 270.704 85.0102 271.151 85.3378C271.625 85.6284 272.157 85.8102 272.71 85.8699C275.186 86.3389 277.698 87.0648 279.653 88.6551C281.607 90.2455 282.889 92.8744 282.271 95.3173L277.388 90.6517C277.573 92.6107 277.679 94.575 277.704 96.5448C277.735 96.9294 277.682 97.3163 277.549 97.6783C277.201 98.4472 276.257 98.7059 275.431 98.8756C275.201 98.9193 274.983 99.0111 274.791 99.1451C274.599 99.2791 274.437 99.4521 274.317 99.6529C274.197 99.8537 274.12 100.078 274.093 100.31C274.065 100.542 274.087 100.778 274.157 101.001C274.451 101.959 275.183 102.705 275.854 103.449C276.524 104.193 277.184 105.038 277.272 106.036C277.36 107.033 276.607 108.158 275.608 108.088C274.851 108.036 274.289 107.358 273.966 106.671C273.643 105.984 273.451 105.219 272.965 104.635C271.496 102.868 268.196 103.625 266.88 101.741C266.545 102.122 266.312 102.582 266.204 103.078C266.097 103.573 266.117 104.088 266.265 104.574C266.877 104.19 267.715 104.547 268.175 105.104C268.635 105.66 268.852 106.374 269.213 107C269.701 107.844 270.477 108.592 270.545 109.565C270.527 109.932 270.533 110.301 270.563 110.668C270.684 111.257 271.182 111.68 271.527 112.172C272.331 113.318 272.291 114.892 271.773 116.192C271.255 117.492 270.325 118.579 269.404 119.632C267.794 121.472 266.152 123.301 264.244 124.828C263.7 125.264 263.119 125.693 262.78 126.302C262.44 126.912 262.423 127.767 262.944 128.231C262.571 128.25 261.903 128.433 261.53 128.452C261.399 126.956 261.37 125.453 261.445 123.954C259.973 123.247 258.389 125.139 258.579 126.76C258.769 128.381 259.941 129.682 260.776 131.085C261.386 132.11 261.84 133.306 261.636 134.482C261.433 135.658 260.383 136.743 259.194 136.639C257.302 136.474 256.511 133.759 254.638 133.449C254.473 133.41 254.3 133.427 254.146 133.497C253.868 133.65 253.819 134.022 253.804 134.339C253.727 135.893 253.661 137.51 254.268 138.943C255.155 141.04 257.449 142.801 256.968 145.027C254.376 143.822 253.028 140.915 252.417 138.124C251.805 135.332 251.703 132.401 250.606 129.762C249.773 130.829 248.023 129.947 247.262 128.827C246.541 127.765 246.097 126.537 245.397 125.461C244.697 124.385 243.625 123.422 242.342 123.363C240.998 123.301 239.832 124.223 238.807 125.095C237.964 125.812 237.098 126.557 236.606 127.547C235.888 128.989 236.076 130.689 236.041 132.299C236.004 134.039 235.635 135.875 234.449 137.15C233.263 138.424 231.073 138.867 229.765 137.719C229.082 137.12 228.751 136.224 228.457 135.364C227.037 131.22 225.854 126.998 224.914 122.719C224.695 123.695 223.837 124.954 223.018 124.379C222.834 124.224 222.685 124.032 222.581 123.816C221.053 121.226 218.222 119.672 215.363 118.741C212.504 117.809 209.495 117.375 206.667 116.351C205.083 115.777 203.569 115.023 202.157 114.104C201.796 114.633 201.586 115.25 201.548 115.889C201.51 116.528 201.645 117.165 201.94 117.733C202.567 118.844 203.986 119.486 205.201 119.098C205.829 118.897 206.36 118.462 206.983 118.246C207.606 118.031 208.442 118.137 208.714 118.737C208.975 119.311 208.581 120.006 208.776 120.606C209.074 121.52 210.452 121.59 210.934 122.422C211.292 123.04 210.998 123.862 210.486 124.361C209.974 124.86 209.291 125.134 208.666 125.481C206.638 126.609 205.197 128.533 203.425 130.031C201.653 131.528 199.153 132.621 197.041 131.661C197.545 129.112 194.509 127.241 193.95 124.703C193.766 123.868 193.861 122.981 193.599 122.167C193.219 120.989 192.174 120.179 191.316 119.286C190.276 118.191 189.465 116.899 188.933 115.486C188.4 114.073 188.156 112.567 188.214 111.058C188.261 110.01 188.453 108.944 188.214 107.922C187.975 106.9 187.129 105.91 186.08 105.957C183.685 106.062 180.668 106.241 179.412 104.199C178.963 103.47 178.768 102.403 179.416 101.845C179.874 101.451 180.549 101.488 181.15 101.547L186.546 102.078C187.808 102.202 189.173 102.305 190.256 101.645C191.339 100.985 191.808 99.2334 190.805 98.4571C190.072 97.8899 188.76 97.9207 188.547 97.0188C188.369 96.2677 189.2 95.4155 188.751 94.7878C188.43 94.3377 187.706 94.4626 187.267 94.8C186.828 95.1374 186.51 95.6308 186.019 95.8863C185.158 96.3344 184.129 95.9079 183.203 95.6181C182.276 95.3282 181.035 95.3036 180.585 96.164C180.083 97.1264 181.031 98.3873 180.532 99.3516C179.873 100.626 177.64 99.9007 176.714 100.997C175.651 102.256 177.437 104.132 177.078 105.74C176.621 105.966 176.112 106.07 175.603 106.042C175.093 106.013 174.599 105.853 174.17 105.576C173.748 105.289 173.411 104.893 173.196 104.43C172.981 103.967 172.896 103.454 172.949 102.946C173.038 102.223 173.415 101.485 173.162 100.801C172.958 100.249 172.403 99.9197 171.888 99.6348L166.644 96.737C166.157 97.6402 166.772 98.7599 167.542 99.4382C168.312 100.117 169.276 100.628 169.782 101.52C170.102 102.139 170.173 102.856 169.982 103.526C169.791 104.195 169.352 104.767 168.753 105.123C168.678 105.175 168.593 105.21 168.503 105.226C168.414 105.241 168.322 105.237 168.234 105.214C168.15 105.165 168.077 105.099 168.019 105.022C167.961 104.944 167.919 104.855 167.896 104.761C166.971 102.393 165.582 100.058 163.361 98.8214C161.14 97.5845 157.949 97.8388 156.492 99.9225C156.146 100.417 155.914 100.982 155.613 101.505C154.012 104.285 150.579 105.601 147.372 105.515C147.059 105.532 146.747 105.459 146.473 105.304C145.955 104.946 145.979 104.186 146.058 103.562L146.395 100.91C146.462 100.377 146.56 99.7887 146.982 99.4563C147.576 98.9877 148.433 99.2834 149.189 99.2725C149.762 99.2457 150.313 99.0433 150.768 98.6927C151.222 98.3421 151.557 97.8603 151.729 97.3127C151.881 96.7596 151.881 96.1753 151.726 95.6228C151.571 95.0702 151.269 94.5704 150.851 94.177C150.504 93.8514 150.039 93.4422 150.222 93.0032C150.295 92.8817 150.394 92.7778 150.511 92.6986C150.629 92.6194 150.762 92.567 150.902 92.5449C152.261 92.1503 153.697 92.0468 155.034 91.5812C156.37 91.1155 157.666 90.1628 157.982 88.7835C158.079 88.3609 158.123 87.8488 158.503 87.6393C158.694 87.5588 158.898 87.517 159.105 87.5163C159.83 87.4132 160.489 87.0427 160.954 86.4776C161.419 85.9125 161.656 85.1938 161.617 84.463C162.258 84.0155 163.155 84.3447 163.775 84.8207C164.394 85.2967 164.941 85.9255 165.695 86.1307C167.1 86.5131 168.458 85.2691 169.914 85.2634C170.526 85.2609 171.16 85.4774 171.736 85.2699C172.32 85.0594 172.668 84.4781 173.117 84.0486C173.565 83.6192 174.351 83.3573 174.765 83.8199L174.413 81.2095C175.122 81.3888 175.862 81.4142 176.583 81.2839C177.303 81.1537 177.987 80.8709 178.589 80.4544L174.034 78.9155C173.876 78.8759 173.73 78.7976 173.609 78.6877C173.277 78.3312 173.606 77.7755 173.876 77.3702C174.52 76.4006 174.628 74.8033 173.569 74.3206C172.846 73.9911 172.016 74.3866 171.322 74.7735L167.997 76.6271C167.892 77.259 168.664 77.6172 169.143 78.0428C169.433 78.3003 169.638 78.6394 169.731 79.0156C169.825 79.3918 169.802 79.7875 169.667 80.1506C169.531 80.5138 169.289 80.8274 168.972 81.0504C168.655 81.2734 168.278 81.3953 167.89 81.4C168.109 81.6846 168.261 82.0148 168.335 82.3662C168.409 82.7175 168.403 83.081 168.318 83.4297L166.081 83.5906C165.83 83.6411 165.569 83.5902 165.356 83.449C165.116 83.2366 165.149 82.8642 165.093 82.5491C164.96 81.7886 164.215 81.2555 163.455 81.1189C162.695 80.9822 161.917 81.1574 161.165 81.3304C160.845 81.4454 160.494 81.4373 160.18 81.3076C160 81.1907 159.864 81.0181 159.791 80.8161C159.461 80.0161 159.769 79.0757 160.299 78.3916C160.829 77.7074 161.555 77.2073 162.206 76.6377C163.764 75.2706 164.909 73.4951 165.511 71.5118C166.742 70.9959 168.017 70.2949 169.248 69.779C171.147 68.8179 173.275 68.4054 175.395 68.588L179.565 68.6676C180.8 68.6912 182.068 68.7214 183.209 69.1921C184.351 69.6628 185.354 70.6808 185.433 71.913C185.457 72.0525 185.445 72.1958 185.398 72.3294C185.351 72.4629 185.271 72.5824 185.166 72.6766C185.004 72.7646 184.822 72.8058 184.638 72.7955C183.487 72.8359 182.996 73.1228 181.845 73.1633Z" fill="#1C1A2B"/>
<path d="M148.608 86.2319C148.771 86.0777 148.888 85.8816 148.947 85.6651C149.005 85.4486 149.003 85.2201 148.941 85.0047C148.544 84.8518 148.113 84.8125 147.695 84.8913C147.278 84.9702 146.891 85.164 146.577 85.451C146.33 85.7009 146.117 85.9823 145.944 86.288C145.396 87.182 144.911 88.2498 145.229 89.2491C145.255 89.3581 145.302 89.4608 145.368 89.5512C145.434 89.6416 145.518 89.7179 145.614 89.7756C145.756 89.8328 145.91 89.8568 146.063 89.8459C146.666 89.8451 147.269 89.808 147.869 89.7348C148.236 89.6898 148.664 89.5859 148.806 89.2435C148.993 88.7935 148.541 88.2843 148.672 87.8152C148.759 87.6054 148.891 87.4171 149.058 87.2634C149.141 87.186 149.204 87.0903 149.244 86.984C149.283 86.8777 149.297 86.7637 149.285 86.6509C149.232 86.4308 148.895 86.306 148.773 86.4972" fill="#1C1A2B"/>
<path d="M151.738 82.1739C151.202 82.0507 150.649 82.016 150.101 82.0711C149.98 82.0675 149.86 82.0948 149.753 82.1503C149.648 82.2272 149.573 82.3367 149.538 82.4615C149.422 82.8326 149.451 83.2336 149.617 83.5847C149.784 83.9358 150.077 84.2112 150.438 84.356C150.635 84.4012 150.823 84.4769 150.996 84.5803C151.459 84.9394 151.164 85.6733 151.251 86.2526C151.35 86.9029 151.979 87.4489 151.864 88.0965C151.773 88.6067 151.228 89.0106 151.316 89.5214C151.408 90.0563 152.087 90.2171 152.628 90.2599C152.941 90.3148 153.264 90.2779 153.557 90.1534C153.851 89.9526 154.06 89.6501 154.143 89.3042C154.365 88.6449 154.458 87.9492 154.418 87.2548C154.415 86.9389 154.336 86.6284 154.187 86.3502C154.024 86.1297 153.843 85.9229 153.646 85.7318C152.61 84.5259 153.701 82.7272 151.738 82.1739Z" fill="#1C1A2B"/>
<path opacity="0.8" d="M288.059 176.637C288.059 176.637 208.66 131.061 174.477 139.696C174.477 139.696 102.035 147.492 93.6389 164.643C93.6389 164.643 70.6108 92.6804 62.2151 90.2817" stroke="#21FA90" stroke-width="0.58125" stroke-miterlimit="10"/>
<path opacity="0.8" d="M93.639 164.643C106.952 129.142 226.89 89.8019 226.89 89.8019C209.859 94.1197 174.477 139.696 174.477 139.696C174.477 139.696 99.6359 85.2443 62.2151 90.2817C62.2151 90.2817 227.01 95.6789 288.059 176.637" stroke="#21FA90" stroke-width="0.58125" stroke-miterlimit="10"/>
<path d="M62.2151 93.7599C64.1361 93.7599 65.6933 92.2026 65.6933 90.2817C65.6933 88.3607 64.1361 86.8035 62.2151 86.8035C60.2941 86.8035 58.7369 88.3607 58.7369 90.2817C58.7369 92.2026 60.2941 93.7599 62.2151 93.7599Z" fill="#21FA90"/>
<path d="M93.6389 168.122C95.5599 168.122 97.1172 166.564 97.1172 164.643C97.1172 162.722 95.5599 161.165 93.6389 161.165C91.718 161.165 90.1607 162.722 90.1607 164.643C90.1607 166.564 91.718 168.122 93.6389 168.122Z" fill="#21FA90"/>
<path d="M226.89 93.2801C228.811 93.2801 230.369 91.7229 230.369 89.8019C230.369 87.881 228.811 86.3237 226.89 86.3237C224.969 86.3237 223.412 87.881 223.412 89.8019C223.412 91.7229 224.969 93.2801 226.89 93.2801Z" fill="#21FA90"/>
<path d="M288.059 180.115C289.98 180.115 291.537 178.558 291.537 176.637C291.537 174.716 289.98 173.159 288.059 173.159C286.138 173.159 284.581 174.716 284.581 176.637C284.581 178.558 286.138 180.115 288.059 180.115Z" fill="#21FA90"/>
<path d="M174.477 143.174C176.398 143.174 177.956 141.617 177.956 139.696C177.956 137.775 176.398 136.218 174.477 136.218C172.556 136.218 170.999 137.775 170.999 139.696C170.999 141.617 172.556 143.174 174.477 143.174Z" fill="#21FA90"/>
</g>
<defs>
<clipPath id="clip0">
<rect width="341.951" height="254" fill="white"/>
</clipPath>
</defs>
</svg>
