<svg width="40" height="40" viewBox="0 0 40 40" fill="none" xmlns="http://www.w3.org/2000/svg">
<path d="M20 10C25.6305 10 30.8837 12.255 34.7933 16.3483L37.0443 13.9917C32.5345 9.26833 26.4805 6.66666 20 6.66666C13.5194 6.66833 7.46553 9.26833 2.95573 13.9917L5.20665 16.3483C9.11631 12.255 14.3695 10 20 10ZM29.0275 23.845C24.1341 18.7217 15.8659 18.7217 10.9724 23.845L13.2234 26.2017C16.8958 22.3567 23.1042 22.3567 26.7766 26.2017L29.0275 23.845Z" fill="#EAE8FF"/>
<path d="M33.4307 18.8217C26.1526 11.1983 13.849 11.1983 6.57089 18.8217L8.82181 21.1783C14.8821 14.8333 25.1195 14.8333 31.1798 21.1783L33.4307 18.8217Z" fill="#EAE8FF"/>
<path d="M20 33.3333C21.7583 33.3333 23.1838 31.8409 23.1838 30C23.1838 28.1591 21.7583 26.6667 20 26.6667C18.2417 26.6667 16.8162 28.1591 16.8162 30C16.8162 31.8409 18.2417 33.3333 20 33.3333Z" fill="#EAE8FF"/>
</svg>
